<mxfile host="app.diagrams.net" modified="2023-01-10T16:55:15.351Z" agent="5.0 (Macintosh; Intel Mac OS X 10_15_7) AppleWebKit/537.36 (KHTML, like Gecko) Chrome/108.0.0.0 Safari/537.36" version="20.8.3" etag="W3lZV2gS_XX1tuTArZQ9" type="github">
  <diagram id="iVVK03uNF1KPnE9QkI34" name="페이지-1">
    <mxGraphModel dx="994" dy="588" grid="1" gridSize="10" guides="1" tooltips="1" connect="1" arrows="1" fold="1" page="1" pageScale="1" pageWidth="827" pageHeight="1169" math="0" shadow="0">
      <root>
        <mxCell id="0" />
        <mxCell id="1" parent="0" />
        <mxCell id="OZGTr3_mcB-NGRwCivsl-1" value="이용자&lt;br&gt;" style="shape=umlActor;verticalLabelPosition=bottom;verticalAlign=top;html=1;outlineConnect=0;" vertex="1" parent="1">
          <mxGeometry x="110" y="310" width="30" height="60" as="geometry" />
        </mxCell>
        <mxCell id="OZGTr3_mcB-NGRwCivsl-3" value="게시판 서비스" style="shape=umlFrame;whiteSpace=wrap;html=1;width=110;height=20;" vertex="1" parent="1">
          <mxGeometry x="270" y="190" width="640" height="510" as="geometry" />
        </mxCell>
        <mxCell id="OZGTr3_mcB-NGRwCivsl-19" style="rounded=0;orthogonalLoop=1;jettySize=auto;html=1;entryX=1;entryY=0.3333333333333333;entryDx=0;entryDy=0;entryPerimeter=0;strokeColor=default;endArrow=none;endFill=0;" edge="1" parent="1" source="OZGTr3_mcB-NGRwCivsl-5" target="OZGTr3_mcB-NGRwCivsl-1">
          <mxGeometry relative="1" as="geometry" />
        </mxCell>
        <mxCell id="OZGTr3_mcB-NGRwCivsl-5" value="회원가입" style="rounded=1;whiteSpace=wrap;html=1;arcSize=40;fontColor=#000000;fillColor=#ffffc0;strokeColor=#ff0000;" vertex="1" parent="1">
          <mxGeometry x="310" y="300" width="120" height="40" as="geometry" />
        </mxCell>
        <mxCell id="OZGTr3_mcB-NGRwCivsl-21" style="edgeStyle=none;rounded=0;orthogonalLoop=1;jettySize=auto;html=1;strokeColor=default;endArrow=none;endFill=0;" edge="1" parent="1" source="OZGTr3_mcB-NGRwCivsl-7">
          <mxGeometry relative="1" as="geometry">
            <mxPoint x="140" y="330" as="targetPoint" />
          </mxGeometry>
        </mxCell>
        <mxCell id="OZGTr3_mcB-NGRwCivsl-28" style="edgeStyle=none;rounded=0;orthogonalLoop=1;jettySize=auto;html=1;entryX=0.5;entryY=1;entryDx=0;entryDy=0;dashed=1;strokeColor=default;startArrow=none;startFill=0;endArrow=classic;endFill=1;exitX=1;exitY=0.5;exitDx=0;exitDy=0;" edge="1" parent="1" source="OZGTr3_mcB-NGRwCivsl-7" target="OZGTr3_mcB-NGRwCivsl-9">
          <mxGeometry relative="1" as="geometry" />
        </mxCell>
        <mxCell id="OZGTr3_mcB-NGRwCivsl-7" value="게시판 보기&lt;span style=&quot;color: rgba(0, 0, 0, 0); font-family: monospace; font-size: 0px; text-align: start;&quot;&gt;%3CmxGraphModel%3E%3Croot%3E%3CmxCell%20id%3D%220%22%2F%3E%3CmxCell%20id%3D%221%22%20parent%3D%220%22%2F%3E%3CmxCell%20id%3D%222%22%20value%3D%22%ED%9A%8C%EC%9B%90%EA%B0%80%EC%9E%85%22%20style%3D%22rounded%3D1%3BwhiteSpace%3Dwrap%3Bhtml%3D1%3BarcSize%3D40%3BfontColor%3D%23000000%3BfillColor%3D%23ffffc0%3BstrokeColor%3D%23ff0000%3B%22%20vertex%3D%221%22%20parent%3D%221%22%3E%3CmxGeometry%20x%3D%22310%22%20y%3D%22240%22%20width%3D%22120%22%20height%3D%2240%22%20as%3D%22geometry%22%2F%3E%3C%2FmxCell%3E%3C%2Froot%3E%3C%2FmxGraphModel%3E&lt;/span&gt;" style="rounded=1;whiteSpace=wrap;html=1;arcSize=40;fontColor=#000000;fillColor=#ffffc0;strokeColor=#ff0000;" vertex="1" parent="1">
          <mxGeometry x="310" y="410" width="120" height="40" as="geometry" />
        </mxCell>
        <mxCell id="OZGTr3_mcB-NGRwCivsl-22" style="edgeStyle=none;rounded=0;orthogonalLoop=1;jettySize=auto;html=1;entryX=1;entryY=0.3333333333333333;entryDx=0;entryDy=0;entryPerimeter=0;strokeColor=default;endArrow=none;endFill=0;" edge="1" parent="1" source="OZGTr3_mcB-NGRwCivsl-8" target="OZGTr3_mcB-NGRwCivsl-1">
          <mxGeometry relative="1" as="geometry" />
        </mxCell>
        <mxCell id="OZGTr3_mcB-NGRwCivsl-30" style="edgeStyle=none;rounded=0;orthogonalLoop=1;jettySize=auto;html=1;dashed=1;strokeColor=default;startArrow=none;startFill=0;endArrow=classic;endFill=1;" edge="1" parent="1" source="OZGTr3_mcB-NGRwCivsl-8">
          <mxGeometry relative="1" as="geometry">
            <mxPoint x="550" y="270" as="targetPoint" />
          </mxGeometry>
        </mxCell>
        <mxCell id="OZGTr3_mcB-NGRwCivsl-8" value="게시글 보기" style="rounded=1;whiteSpace=wrap;html=1;arcSize=40;fontColor=#000000;fillColor=#ffffc0;strokeColor=#ff0000;" vertex="1" parent="1">
          <mxGeometry x="310" y="510" width="120" height="40" as="geometry" />
        </mxCell>
        <mxCell id="OZGTr3_mcB-NGRwCivsl-20" style="edgeStyle=none;rounded=0;orthogonalLoop=1;jettySize=auto;html=1;strokeColor=default;endArrow=none;endFill=0;" edge="1" parent="1" source="OZGTr3_mcB-NGRwCivsl-9">
          <mxGeometry relative="1" as="geometry">
            <mxPoint x="140" y="330" as="targetPoint" />
            <Array as="points">
              <mxPoint x="490" y="250" />
            </Array>
          </mxGeometry>
        </mxCell>
        <mxCell id="OZGTr3_mcB-NGRwCivsl-23" style="edgeStyle=none;rounded=0;orthogonalLoop=1;jettySize=auto;html=1;entryX=0;entryY=0.5;entryDx=0;entryDy=0;strokeColor=default;endArrow=classic;endFill=1;dashed=1;" edge="1" parent="1" source="OZGTr3_mcB-NGRwCivsl-9" target="OZGTr3_mcB-NGRwCivsl-10">
          <mxGeometry relative="1" as="geometry" />
        </mxCell>
        <mxCell id="OZGTr3_mcB-NGRwCivsl-26" value="&amp;lt;&amp;lt;include&amp;gt;&amp;gt;" style="edgeLabel;html=1;align=center;verticalAlign=middle;resizable=0;points=[];" vertex="1" connectable="0" parent="OZGTr3_mcB-NGRwCivsl-23">
          <mxGeometry x="-0.0514" y="2" relative="1" as="geometry">
            <mxPoint as="offset" />
          </mxGeometry>
        </mxCell>
        <mxCell id="OZGTr3_mcB-NGRwCivsl-9" value="회원 로그인" style="rounded=1;whiteSpace=wrap;html=1;arcSize=40;fontColor=#000000;fillColor=#ffffc0;strokeColor=#ff0000;" vertex="1" parent="1">
          <mxGeometry x="490" y="230" width="120" height="40" as="geometry" />
        </mxCell>
        <mxCell id="OZGTr3_mcB-NGRwCivsl-37" style="edgeStyle=none;rounded=0;orthogonalLoop=1;jettySize=auto;html=1;entryX=0;entryY=0.5;entryDx=0;entryDy=0;strokeColor=default;startArrow=none;startFill=0;endArrow=none;endFill=0;" edge="1" parent="1" source="OZGTr3_mcB-NGRwCivsl-10" target="OZGTr3_mcB-NGRwCivsl-35">
          <mxGeometry relative="1" as="geometry" />
        </mxCell>
        <mxCell id="OZGTr3_mcB-NGRwCivsl-10" value="인증" style="rounded=1;whiteSpace=wrap;html=1;arcSize=40;fontColor=#000000;fillColor=#ffffc0;strokeColor=#ff0000;" vertex="1" parent="1">
          <mxGeometry x="750" y="230" width="120" height="40" as="geometry" />
        </mxCell>
        <mxCell id="OZGTr3_mcB-NGRwCivsl-25" style="edgeStyle=none;rounded=0;orthogonalLoop=1;jettySize=auto;html=1;entryX=1;entryY=0.5;entryDx=0;entryDy=0;strokeColor=default;endArrow=classic;endFill=1;exitX=0;exitY=0.5;exitDx=0;exitDy=0;dashed=1;startArrow=none;startFill=0;" edge="1" parent="1" source="OZGTr3_mcB-NGRwCivsl-14" target="OZGTr3_mcB-NGRwCivsl-9">
          <mxGeometry relative="1" as="geometry" />
        </mxCell>
        <mxCell id="OZGTr3_mcB-NGRwCivsl-27" value="&amp;lt;&amp;lt;extend&amp;gt;&amp;gt;" style="edgeLabel;html=1;align=center;verticalAlign=middle;resizable=0;points=[];" vertex="1" connectable="0" parent="OZGTr3_mcB-NGRwCivsl-25">
          <mxGeometry x="-0.2183" y="-3" relative="1" as="geometry">
            <mxPoint x="-17" y="-1" as="offset" />
          </mxGeometry>
        </mxCell>
        <mxCell id="OZGTr3_mcB-NGRwCivsl-14" value="로그인 실패" style="rounded=1;whiteSpace=wrap;html=1;arcSize=40;fontColor=#000000;fillColor=#ffffc0;strokeColor=#ff0000;" vertex="1" parent="1">
          <mxGeometry x="750" y="300" width="120" height="40" as="geometry" />
        </mxCell>
        <mxCell id="OZGTr3_mcB-NGRwCivsl-31" style="edgeStyle=none;rounded=0;orthogonalLoop=1;jettySize=auto;html=1;entryX=1;entryY=0.5;entryDx=0;entryDy=0;dashed=1;strokeColor=default;startArrow=none;startFill=0;endArrow=classic;endFill=1;" edge="1" parent="1" source="OZGTr3_mcB-NGRwCivsl-15" target="OZGTr3_mcB-NGRwCivsl-7">
          <mxGeometry relative="1" as="geometry" />
        </mxCell>
        <mxCell id="OZGTr3_mcB-NGRwCivsl-15" value="게시판 정렬&lt;span style=&quot;color: rgba(0, 0, 0, 0); font-family: monospace; font-size: 0px; text-align: start;&quot;&gt;%3CmxGraphModel%3E%3Croot%3E%3CmxCell%20id%3D%220%22%2F%3E%3CmxCell%20id%3D%221%22%20parent%3D%220%22%2F%3E%3CmxCell%20id%3D%222%22%20value%3D%22%ED%9A%8C%EC%9B%90%EA%B0%80%EC%9E%85%22%20style%3D%22rounded%3D1%3BwhiteSpace%3Dwrap%3Bhtml%3D1%3BarcSize%3D40%3BfontColor%3D%23000000%3BfillColor%3D%23ffffc0%3BstrokeColor%3D%23ff0000%3B%22%20vertex%3D%221%22%20parent%3D%221%22%3E%3CmxGeometry%20x%3D%22310%22%20y%3D%22240%22%20width%3D%22120%22%20height%3D%2240%22%20as%3D%22geometry%22%2F%3E%3C%2FmxCell%3E%3C%2Froot%3E%3C%2FmxGraphModel%&lt;/span&gt;" style="rounded=1;whiteSpace=wrap;html=1;arcSize=40;fontColor=#000000;fillColor=#ffffc0;strokeColor=#ff0000;" vertex="1" parent="1">
          <mxGeometry x="530" y="350" width="120" height="40" as="geometry" />
        </mxCell>
        <mxCell id="OZGTr3_mcB-NGRwCivsl-32" style="edgeStyle=none;rounded=0;orthogonalLoop=1;jettySize=auto;html=1;dashed=1;strokeColor=default;startArrow=none;startFill=0;endArrow=classic;endFill=1;" edge="1" parent="1" source="OZGTr3_mcB-NGRwCivsl-16">
          <mxGeometry relative="1" as="geometry">
            <mxPoint x="430" y="430" as="targetPoint" />
          </mxGeometry>
        </mxCell>
        <mxCell id="OZGTr3_mcB-NGRwCivsl-16" value="게시판 검색&lt;span style=&quot;color: rgba(0, 0, 0, 0); font-family: monospace; font-size: 0px; text-align: start;&quot;&gt;%3CmxGraphModel%3E%3Croot%3E%3CmxCell%20id%3D%220%22%2F%3E%3CmxCell%20id%3D%221%22%20parent%3D%220%22%2F%3E%3CmxCell%20id%3D%222%22%20value%3D%22%ED%9A%8C%EC%9B%90%EA%B0%80%EC%9E%85%22%20style%3D%22rounded%3D1%3BwhiteSpace%3Dwrap%3Bhtml%3D1%3BarcSize%3D40%3BfontColor%3D%23000000%3BfillColor%3D%23ffffc0%3BstrokeColor%3D%23ff0000%3B%22%20vertex%3D%221%22%20parent%3D%221%22%3E%3CmxGeometry%20x%3D%22310%22%20y%3D%22240%22%20width%3D%22120%22%20height%3D%2240%22%20as%3D%22geometry%22%2F%3E%3C%2FmxCell%3E%3C%2Froot%3E%3C%2FmxGraphMode&lt;/span&gt;" style="rounded=1;whiteSpace=wrap;html=1;arcSize=40;fontColor=#000000;fillColor=#ffffc0;strokeColor=#ff0000;" vertex="1" parent="1">
          <mxGeometry x="530" y="425" width="120" height="40" as="geometry" />
        </mxCell>
        <mxCell id="OZGTr3_mcB-NGRwCivsl-33" style="edgeStyle=none;rounded=0;orthogonalLoop=1;jettySize=auto;html=1;entryX=1;entryY=0.5;entryDx=0;entryDy=0;dashed=1;strokeColor=default;startArrow=none;startFill=0;endArrow=classic;endFill=1;" edge="1" parent="1" source="OZGTr3_mcB-NGRwCivsl-17" target="OZGTr3_mcB-NGRwCivsl-8">
          <mxGeometry relative="1" as="geometry" />
        </mxCell>
        <mxCell id="OZGTr3_mcB-NGRwCivsl-17" value="게시글 쓰기,수정,삭제" style="rounded=1;whiteSpace=wrap;html=1;arcSize=40;fontColor=#000000;fillColor=#ffffc0;strokeColor=#ff0000;" vertex="1" parent="1">
          <mxGeometry x="520" y="545" width="120" height="40" as="geometry" />
        </mxCell>
        <mxCell id="OZGTr3_mcB-NGRwCivsl-34" style="edgeStyle=none;rounded=0;orthogonalLoop=1;jettySize=auto;html=1;dashed=1;strokeColor=default;startArrow=none;startFill=0;endArrow=classic;endFill=1;" edge="1" parent="1" source="OZGTr3_mcB-NGRwCivsl-18">
          <mxGeometry relative="1" as="geometry">
            <mxPoint x="430" y="530" as="targetPoint" />
          </mxGeometry>
        </mxCell>
        <mxCell id="OZGTr3_mcB-NGRwCivsl-18" value="댓글 보기,&lt;br&gt;쓰기,수정,삭제" style="rounded=1;whiteSpace=wrap;html=1;arcSize=40;fontColor=#000000;fillColor=#ffffc0;strokeColor=#ff0000;" vertex="1" parent="1">
          <mxGeometry x="520" y="620" width="120" height="40" as="geometry" />
        </mxCell>
        <mxCell id="OZGTr3_mcB-NGRwCivsl-38" style="edgeStyle=none;rounded=0;orthogonalLoop=1;jettySize=auto;html=1;strokeColor=default;startArrow=none;startFill=0;endArrow=none;endFill=0;exitX=0;exitY=0.5;exitDx=0;exitDy=0;" edge="1" parent="1" source="OZGTr3_mcB-NGRwCivsl-35">
          <mxGeometry relative="1" as="geometry">
            <mxPoint x="430" y="430" as="targetPoint" />
          </mxGeometry>
        </mxCell>
        <mxCell id="OZGTr3_mcB-NGRwCivsl-39" style="edgeStyle=none;rounded=0;orthogonalLoop=1;jettySize=auto;html=1;strokeColor=default;startArrow=none;startFill=0;endArrow=none;endFill=0;exitX=0;exitY=0.5;exitDx=0;exitDy=0;" edge="1" parent="1" source="OZGTr3_mcB-NGRwCivsl-35">
          <mxGeometry relative="1" as="geometry">
            <mxPoint x="430" y="530" as="targetPoint" />
          </mxGeometry>
        </mxCell>
        <mxCell id="OZGTr3_mcB-NGRwCivsl-40" style="edgeStyle=none;rounded=0;orthogonalLoop=1;jettySize=auto;html=1;entryX=1;entryY=0.5;entryDx=0;entryDy=0;strokeColor=default;startArrow=none;startFill=0;endArrow=none;endFill=0;exitX=0;exitY=0.5;exitDx=0;exitDy=0;" edge="1" parent="1" source="OZGTr3_mcB-NGRwCivsl-35" target="OZGTr3_mcB-NGRwCivsl-17">
          <mxGeometry relative="1" as="geometry">
            <mxPoint x="980" y="376" as="sourcePoint" />
          </mxGeometry>
        </mxCell>
        <mxCell id="OZGTr3_mcB-NGRwCivsl-41" style="edgeStyle=none;rounded=0;orthogonalLoop=1;jettySize=auto;html=1;entryX=1;entryY=0.5;entryDx=0;entryDy=0;strokeColor=default;startArrow=none;startFill=0;endArrow=none;endFill=0;exitX=0;exitY=0.5;exitDx=0;exitDy=0;" edge="1" parent="1" source="OZGTr3_mcB-NGRwCivsl-35" target="OZGTr3_mcB-NGRwCivsl-18">
          <mxGeometry relative="1" as="geometry" />
        </mxCell>
        <mxCell id="OZGTr3_mcB-NGRwCivsl-35" value="DB" style="html=1;dropTarget=0;" vertex="1" parent="1">
          <mxGeometry x="980" y="300" width="110" height="90" as="geometry" />
        </mxCell>
      </root>
    </mxGraphModel>
  </diagram>
</mxfile>
